<svg width="408" height="90" viewBox="0 0 408 90" fill="none" xmlns="http://www.w3.org/2000/svg">
<path d="M59.2503 0.00563196C58.956 0.0034816 58.956 0.0034816 58.6558 0.00128779C58.007 -0.00210085 57.3585 0.00179502 56.7098 0.00607219C56.2592 0.00590621 55.8085 0.00541364 55.3579 0.00460783C54.4134 0.00403485 53.469 0.00698435 52.5245 0.0124799C51.3132 0.0193084 50.1021 0.018103 48.8908 0.0143507C47.9603 0.0122343 47.0298 0.0140225 46.0993 0.0170323C45.6526 0.0180716 45.206 0.0179727 44.7593 0.0167228C44.1353 0.0156321 43.5115 0.0197076 42.8875 0.0251975C42.7025 0.0238901 42.5175 0.0225826 42.3268 0.0212355C41.0759 0.03997 41.0759 0.03997 40.4267 0.514413C40.1081 0.967634 40.0212 1.18994 40.0299 1.73489C40.0268 1.93323 40.0268 1.93323 40.0235 2.13559C40.1898 2.7492 40.4219 2.96995 40.9498 3.3377C41.5477 3.39653 42.0445 3.41422 42.6363 3.38778C43.1592 3.37126 43.682 3.35473 44.2206 3.3377C44.2206 4.5939 44.2206 5.8501 44.2206 7.14437C44.5211 7.14954 44.8215 7.1547 45.131 7.16003C45.526 7.1713 45.921 7.18279 46.316 7.19446C46.5139 7.1973 46.7118 7.20014 46.9157 7.20307C48.0551 7.23177 48.0551 7.23177 49.063 7.7016C49.3731 8.21546 49.3982 8.41941 49.2802 8.99762C49.2296 9.24556 49.179 9.49349 49.1269 9.74894C48.5423 9.91219 48.0237 9.97416 47.4166 9.97453C47.1545 9.97568 47.1545 9.97568 46.8871 9.97684C46.606 9.97715 46.606 9.97715 46.3192 9.97747C45.9194 9.98114 45.5196 9.98506 45.1198 9.98921C44.4918 9.995 43.8639 9.99938 43.2358 9.99948C42.6281 10.0002 42.0207 10.0071 41.413 10.015C41.1344 10.0129 41.1344 10.0129 40.8501 10.0107C39.5652 10.0346 38.6468 10.2951 37.679 11.1514C37.0711 12.0171 36.9918 12.7043 37.0059 13.7419C37.0078 14.0001 37.0098 14.2584 37.0118 14.5245C37.017 14.7943 37.0222 15.064 37.0274 15.3337C37.0305 15.6082 37.0333 15.8826 37.0358 16.1571C37.043 16.826 37.0531 17.4948 37.0657 18.1637C36.9306 18.1598 36.7955 18.1559 36.6563 18.1518C34.9286 18.1225 33.7487 18.4658 32.3001 19.4034C31.0878 20.6467 30.334 22.1763 30.3133 23.9066C30.3838 25.1603 30.648 26.1246 31.3418 27.1795C31.4767 27.3861 31.6117 27.5927 31.7507 27.8056C32.5509 28.6813 33.6882 29.2378 34.8171 29.5837C35.2066 29.5987 35.5966 29.6025 35.9864 29.5975C36.1886 29.5955 36.3908 29.5935 36.5992 29.5915C36.7531 29.5889 36.9071 29.5864 37.0657 29.5837C37.0639 29.7538 37.0621 29.9239 37.0602 30.0991C37.0438 31.7055 37.0314 33.312 37.0234 34.9184C37.0191 35.7443 37.0133 36.57 37.0041 37.3958C36.9951 38.1935 36.9903 38.991 36.9882 39.7887C36.9867 40.0923 36.9837 40.3959 36.9793 40.6995C36.9366 43.7476 36.9366 43.7476 37.8834 44.8104C39.1149 45.6866 40.1174 45.727 41.6122 45.7155C41.8394 45.7169 42.0666 45.7183 42.3007 45.7198C43.0494 45.7233 43.7978 45.721 44.5464 45.7183C45.068 45.7188 45.5897 45.7196 46.1113 45.7206C47.2035 45.7218 48.2957 45.7201 49.3879 45.7163C50.648 45.712 51.9079 45.7134 53.168 45.7178C54.3836 45.7219 55.5992 45.7214 56.8148 45.7191C57.3305 45.7186 57.8463 45.7192 58.3621 45.7211C59.0833 45.7231 59.8044 45.72 60.5256 45.7155C60.738 45.7172 60.9505 45.7188 61.1693 45.7205C62.4421 45.7059 63.2422 45.5933 64.2544 44.8104C65.3701 43.5292 65.1877 42.0306 65.1779 40.4203C65.179 40.1164 65.1804 39.8125 65.1822 39.5087C65.1859 38.6861 65.1845 37.8637 65.1819 37.0412C65.1798 36.1789 65.1817 35.3167 65.183 34.4545C65.1845 33.0068 65.1826 31.5591 65.1787 30.1113C65.1742 28.4394 65.1757 26.7675 65.1802 25.0955C65.1839 23.658 65.1844 22.2206 65.1823 20.7831C65.181 19.9254 65.1808 19.0678 65.1835 18.2101C65.1859 17.4036 65.1842 16.5972 65.1795 15.7907C65.1784 15.4954 65.1787 15.2 65.1805 14.9047C65.196 12.1165 65.196 12.1165 64.2544 10.9511C63.0185 9.96426 61.8228 10.0533 60.2808 10.0996C59.5008 10.1161 58.7208 10.1326 57.9172 10.1496C57.9172 7.9017 57.9172 5.65376 57.9172 3.3377C58.9965 3.3377 60.0759 3.3377 61.188 3.3377C62.0057 2.33594 62.0057 2.33594 62.1079 1.73489C61.8189 0.0353365 60.7465 -0.0133117 59.2503 0.00563196Z" fill="white"/>
<path d="M29.5021 18.1637C22.9115 17.7718 15.9757 20.7345 11.0678 24.9201C10.452 25.4585 9.85773 26.0168 9.26392 26.5785C9.09211 26.7342 8.92029 26.8899 8.74328 27.0504C4.92085 30.6117 2.45692 35.2271 0.933577 40.1272C0.892913 40.2562 0.852249 40.3853 0.810352 40.5182C0.116848 42.8622 -0.012354 45.2289 0.000884279 47.6529C0.00132485 47.7985 0.00176651 47.944 0.00222043 48.094C0.0130241 50.3213 0.114998 52.462 0.678044 54.6276C0.715398 54.7797 0.75275 54.9318 0.791235 55.0884C1.79429 59.0739 3.57911 62.8388 6.19753 66.0477C6.35327 66.2442 6.50901 66.4408 6.66947 66.6432C8.73974 69.1997 11.3706 71.7615 14.3746 73.2603C15.4383 73.1527 16.421 72.6884 17.409 72.3094C19.9901 71.4757 22.742 71.5894 25.4239 71.5746C25.8555 71.5708 26.2872 71.5669 26.7188 71.5628C27.8462 71.5526 28.9737 71.5446 30.1012 71.5371C31.2552 71.5291 32.4091 71.5189 33.563 71.5088C35.8209 71.4895 38.0787 71.4726 40.3366 71.4572C40.2692 70.9944 40.2017 70.5315 40.1322 70.0547C40.3157 70.0546 40.3157 70.0545 40.5029 70.0544C43.4802 70.0514 46.4574 70.0429 49.4347 70.0282C50.8745 70.0213 52.3143 70.0162 53.7541 70.0155C55.1432 70.0149 56.5323 70.009 57.9214 69.9999C58.4517 69.9973 58.9821 69.9965 59.5124 69.9974C60.2545 69.9984 60.9963 69.9931 61.7384 69.9865C61.9584 69.9882 62.1783 69.9899 62.405 69.9917C63.8901 69.9693 63.8901 69.9693 64.6975 69.389C65.1952 68.6764 65.2264 68.297 65.0721 67.4501C64.5408 66.7847 64.2374 66.4833 63.3805 66.3237C63.1246 66.3239 62.8687 66.3241 62.6051 66.3243C62.3904 66.3225 62.3904 66.3225 62.1714 66.3206C61.6929 66.3176 61.2147 66.3217 60.7362 66.3258C60.3926 66.3251 60.049 66.3239 59.7054 66.3224C58.9656 66.3199 58.2259 66.3206 57.4861 66.3237C56.3138 66.3286 55.1417 66.3263 53.9695 66.323C51.9011 66.3181 49.8328 66.3193 47.7644 66.3218C44.6582 66.3255 41.552 66.3245 38.4458 66.3177C37.2833 66.3155 36.1208 66.3163 34.9582 66.3197C34.2306 66.3213 33.5031 66.3205 32.7754 66.319C32.4412 66.3188 32.1069 66.3197 31.7726 66.3217C26.147 66.3538 21.1854 64.6211 17.108 60.7258C13.4426 56.9525 11.7863 52.172 11.864 47.0276C12.0555 42.1032 14.7318 37.6897 18.2515 34.3256C20.9161 31.9552 24.2616 30.6119 27.7697 30.0327C27.9361 30.0051 28.1025 29.9776 28.2739 29.9492C28.4222 29.9267 28.5706 29.9041 28.7234 29.8809C29.0932 29.7841 29.0932 29.7841 29.5021 29.3834C29.3799 29.223 29.3799 29.223 29.2553 29.0594C27.8504 27.123 27.2691 24.9997 27.56 22.634C27.8403 21.1412 28.5594 19.881 29.2976 18.5644C29.3651 18.4322 29.4326 18.2999 29.5021 18.1637Z" fill="white"/>
<path d="M54.9844 74.4343C54.84 74.4337 54.6957 74.4331 54.5471 74.4325C54.0671 74.4308 53.5871 74.4304 53.1072 74.4301C52.7615 74.4292 52.4158 74.4282 52.0701 74.4271C51.1332 74.4245 50.1963 74.4232 49.2594 74.4223C48.6729 74.4217 48.0863 74.4209 47.4997 74.42C45.6608 74.4173 43.822 74.4153 41.9831 74.4146C39.8672 74.4137 37.7513 74.4102 35.6354 74.4044C33.9956 74.4 32.3558 74.398 30.7159 74.3977C29.7386 74.3975 28.7613 74.3964 27.784 74.3928C26.8632 74.3894 25.9423 74.389 25.0215 74.3908C24.6859 74.3909 24.3502 74.3901 24.0146 74.3881C21.307 74.3729 18.5668 74.5123 16.1377 75.8148C16.0014 75.8849 15.8652 75.955 15.7248 76.0273C14.636 76.6025 13.6576 77.2537 12.7391 78.0688C12.6018 78.185 12.4645 78.3012 12.3231 78.4209C10.5152 80.0527 9.33632 82.1843 8.65058 84.48C8.5818 84.6973 8.5818 84.6973 8.51163 84.919C8.14602 86.2517 8.03734 87.7249 8.24172 89.0881C8.64701 89.5892 8.89415 89.8549 9.54017 89.9899C9.71951 89.9901 9.89884 89.9902 10.0836 89.9903C10.2912 89.9924 10.4989 89.9945 10.7128 89.9967C10.9405 89.9949 11.1683 89.9931 11.4029 89.9912C11.6451 89.9925 11.8873 89.9937 12.1369 89.995C12.8094 89.9977 13.4818 89.9967 14.1543 89.9942C14.8795 89.9924 15.6047 89.9952 16.3299 89.9974C17.7506 90.001 19.1713 90.0002 20.592 89.9979C21.7465 89.9961 22.9009 89.9958 24.0554 89.9967C24.3017 89.9969 24.3017 89.9969 24.5529 89.9971C24.8864 89.9974 25.22 89.9976 25.5535 89.9979C28.6823 90.0002 31.8112 89.9975 34.94 89.9932C37.6259 89.9896 40.3117 89.9903 42.9975 89.994C46.115 89.9983 49.2325 89.9999 52.35 89.9975C52.6823 89.9972 53.0146 89.997 53.3469 89.9967C53.5104 89.9966 53.6739 89.9965 53.8424 89.9964C54.9957 89.9957 56.149 89.9968 57.3024 89.9987C58.7075 90.001 60.1126 90.0004 61.5178 89.9961C62.235 89.994 62.9521 89.9932 63.6693 89.9958C64.4461 89.9986 65.2227 89.9953 65.9994 89.9912C66.2271 89.993 66.4549 89.9948 66.6895 89.9967C66.8971 89.9946 67.1048 89.9925 67.3187 89.9903C67.498 89.9902 67.6774 89.9901 67.8621 89.9899C68.5083 89.8549 68.7548 89.5891 69.1606 89.0881C69.6638 86.136 68.5573 82.9227 66.9119 80.473C66.2352 79.6017 65.4615 78.8324 64.6632 78.0688C64.5462 77.95 64.4292 77.8312 64.3087 77.7087C61.8586 75.4065 58.2875 74.4419 54.9844 74.4343Z" fill="white"/>
<path d="M57.9172 48.6171C53.3974 48.6171 48.8775 48.6171 44.2207 48.6171C44.2207 53.4255 44.2207 53.4255 45.0384 54.828C46.1843 55.6969 47.153 55.748 48.5711 55.7358C48.8693 55.737 48.8693 55.737 49.1735 55.7382C49.592 55.7387 50.0105 55.7372 50.429 55.7339C51.0671 55.7296 51.7046 55.7339 52.3426 55.739C52.7507 55.7384 53.1587 55.7374 53.5668 55.7358C53.8508 55.7383 53.8508 55.7383 54.1406 55.7408C55.3664 55.7235 56.1272 55.5845 57.0995 54.828C57.9172 53.2252 57.9172 53.2252 57.9172 48.6171Z" fill="white"/>
<path d="M148.83 84.8571V90H66.717V84.8571H148.83Z" fill="white"/>
<path d="M97.5094 70V61.3333L130.433 13.5H99.006V2.5H146.064V11.1667L113.223 59H147.062V70H97.5094Z" fill="white"/>
<path d="M147.834 90L148.83 84.8571C148.83 84.8571 157.811 84.8571 159.094 83.5714C161.66 79.7143 162.467 70.1667 162.467 70.1667L141.848 20H154.32L168.537 55.4167H168.869L180.925 20H193.146L170.698 80.25C169.479 83.4722 168.066 85.8889 166.458 87.5C164.851 89.1667 162.384 90 159.059 90H147.834Z" fill="white"/>
<path d="M208.552 70L189.18 20H201.652L214.871 56H215.204L228.257 20H240.478L221.107 70H208.552Z" fill="white"/>
<path d="M262.625 71C257.969 71 253.812 69.9445 250.154 67.8333C246.496 65.6667 243.586 62.6389 241.424 58.75C239.318 54.8611 238.265 50.2778 238.265 45C238.265 39.6667 239.318 35.0556 241.424 31.1667C243.586 27.2778 246.496 24.2778 250.154 22.1667C253.812 20.0556 257.969 19 262.625 19C267.392 19 271.604 20.0556 275.263 22.1667C278.921 24.2778 281.775 27.2778 283.826 31.1667C285.932 35.0556 286.985 39.6667 286.985 45C286.985 50.2778 285.932 54.8889 283.826 58.8333C281.72 62.7222 278.838 65.7222 275.179 67.8333C271.521 69.9445 267.336 71 262.625 71ZM262.625 60.1667C266.339 60.1667 269.304 58.8056 271.521 56.0833C273.794 53.3056 274.93 49.6111 274.93 45C274.93 40.3333 273.794 36.6389 271.521 33.9167C269.304 31.1944 266.339 29.8333 262.625 29.8333C259.022 29.8333 256.057 31.1944 253.729 33.9167C251.456 36.6389 250.32 40.3333 250.32 45C250.32 49.6111 251.456 53.3056 253.729 56.0833C256.057 58.8056 259.022 60.1667 262.625 60.1667Z" fill="white"/>
<path d="M292.696 70V0H304.752V70H292.696Z" fill="white"/>
<path d="M326.718 70.9167C321.674 70.9167 317.6 69.5 314.496 66.6667C311.448 63.8333 309.923 60.1111 309.923 55.5C309.923 50.6667 311.531 46.9167 314.745 44.25C318.016 41.5833 322.588 40.25 328.464 40.25H341.268V38.0833C341.268 35.1944 340.436 32.9444 338.773 31.3333C337.166 29.7222 334.921 28.9167 332.039 28.9167C329.6 28.9167 327.577 29.4722 325.97 30.5833C324.362 31.6944 323.309 33.3056 322.81 35.4167H310.588C311.531 30.1944 313.886 26.1667 317.655 23.3333C321.424 20.4444 326.219 19 332.039 19C338.579 19 343.651 20.6944 347.254 24.0833C350.912 27.4722 352.741 32.25 352.741 38.4167V70H341.517V62.5H341.184C339.854 65.1667 337.914 67.25 335.365 68.75C332.87 70.1945 329.988 70.9167 326.718 70.9167ZM329.295 61.3333C331.568 61.3333 333.591 60.8333 335.365 59.8333C337.194 58.8333 338.635 57.4722 339.688 55.75C340.741 53.9722 341.268 51.9722 341.268 49.75V48.6667H329.046C326.552 48.6667 324.639 49.2222 323.309 50.3333C321.979 51.4444 321.314 52.9722 321.314 54.9167C321.314 56.9167 322.034 58.5 323.475 59.6667C324.916 60.7778 326.856 61.3333 329.295 61.3333Z" fill="white"/>
<path d="M387.298 71C380.48 71 375.63 68.1667 372.748 62.5H372.416V70H360.693V0H372.748V27.25H373.081C375.852 21.75 380.591 19 387.298 19C391.455 19 395.085 20.0833 398.189 22.25C401.293 24.4167 403.704 27.4722 405.423 31.4167C407.141 35.3056 408 39.8333 408 45C408 50.1111 407.141 54.6389 405.423 58.5833C403.704 62.4722 401.293 65.5278 398.189 67.75C395.085 69.9167 391.455 71 387.298 71ZM383.972 60.25C387.686 60.25 390.596 58.8889 392.702 56.1667C394.864 53.3889 395.945 49.6667 395.945 45C395.945 40.3333 394.864 36.6389 392.702 33.9167C390.596 31.1389 387.686 29.75 383.972 29.75C380.48 29.75 377.737 30.8889 375.741 33.1667C373.746 35.4444 372.748 38.4722 372.748 42.25V47.75C372.748 51.5278 373.746 54.5556 375.741 56.8333C377.737 59.1111 380.48 60.25 383.972 60.25Z" fill="white"/>
</svg>
