<svg width="159" height="35" viewBox="0 0 159 35" fill="none" xmlns="http://www.w3.org/2000/svg">
<path d="M23.0902 0.00219021C22.9755 0.00135395 22.9755 0.00135395 22.8585 0.000500808C22.6057 -0.000816996 22.353 0.000698064 22.1001 0.00236141C21.9245 0.00229686 21.7489 0.00210531 21.5733 0.00179193C21.2052 0.00156911 20.8372 0.00271614 20.4691 0.0048533C19.9971 0.00750882 19.5251 0.00704005 19.053 0.00558082C18.6904 0.00475778 18.3278 0.00545319 17.9652 0.00662369C17.7911 0.00702784 17.617 0.00698939 17.443 0.00650331C17.1998 0.00607915 16.9567 0.00766406 16.7135 0.00979904C16.6414 0.00929058 16.5693 0.00878212 16.495 0.00825825C16.0075 0.0155439 16.0075 0.0155439 15.7545 0.20005C15.6304 0.376302 15.5965 0.462755 15.5999 0.674678C15.5987 0.751813 15.5987 0.751813 15.5974 0.830507C15.6622 1.06913 15.7526 1.15498 15.9584 1.29799C16.1914 1.32087 16.385 1.32775 16.6156 1.31747C16.8194 1.31104 17.0231 1.30462 17.233 1.29799C17.233 1.78652 17.233 2.27504 17.233 2.77837C17.3501 2.78038 17.4672 2.78239 17.5878 2.78445C17.7417 2.78884 17.8957 2.79331 18.0496 2.79785C18.1267 2.79895 18.2039 2.80006 18.2833 2.80119C18.7273 2.81236 18.7273 2.81236 19.1201 2.99507C19.241 3.1949 19.2508 3.27421 19.2048 3.49908C19.1851 3.5955 19.1653 3.69191 19.145 3.79126C18.9172 3.85474 18.7151 3.87884 18.4785 3.87899C18.3764 3.87943 18.3764 3.87943 18.2722 3.87988C18.1626 3.88 18.1626 3.88 18.0509 3.88013C17.8951 3.88155 17.7393 3.88308 17.5835 3.88469C17.3387 3.88695 17.094 3.88865 16.8493 3.88869C16.6124 3.88895 16.3757 3.89165 16.1389 3.89474C16.0303 3.89391 16.0303 3.89391 15.9195 3.89307C15.4188 3.90233 15.0609 4.00366 14.6837 4.33666C14.4468 4.67332 14.4159 4.94055 14.4214 5.34407C14.4222 5.4445 14.4229 5.54494 14.4237 5.64842C14.4257 5.75332 14.4278 5.85822 14.4298 5.96312C14.431 6.06985 14.4321 6.17657 14.4331 6.2833C14.4359 6.54345 14.4398 6.80354 14.4447 7.06366C14.3921 7.06214 14.3394 7.06061 14.2852 7.05904C13.6119 7.04765 13.1521 7.18114 12.5875 7.54576C12.1151 8.02928 11.8213 8.62412 11.8133 9.29701C11.8407 9.78455 11.9437 10.1596 12.2141 10.5698C12.2667 10.6502 12.3193 10.7305 12.3734 10.8133C12.6853 11.1538 13.1285 11.3703 13.5684 11.5048C13.7202 11.5106 13.8722 11.5121 14.0241 11.5101C14.1029 11.5094 14.1817 11.5086 14.2629 11.5078C14.3229 11.5068 14.3829 11.5058 14.4447 11.5048C14.444 11.5709 14.4433 11.6371 14.4426 11.7052C14.4362 12.3299 14.4314 12.9546 14.4282 13.5794C14.4266 13.9005 14.4243 14.2217 14.4207 14.5428C14.4172 14.853 14.4153 15.1632 14.4145 15.4734C14.4139 15.5915 14.4128 15.7095 14.411 15.8276C14.3944 17.0129 14.3944 17.0129 14.7634 17.4263C15.2433 17.767 15.634 17.7827 16.2165 17.7783C16.3051 17.7788 16.3936 17.7794 16.4848 17.7799C16.7766 17.7813 17.0683 17.7804 17.36 17.7793C17.5633 17.7795 17.7666 17.7798 17.9698 17.7802C18.3955 17.7807 18.8211 17.7801 19.2467 17.7786C19.7378 17.7769 20.2288 17.7774 20.7199 17.7791C21.1936 17.7807 21.6673 17.7806 22.1411 17.7796C22.3421 17.7794 22.543 17.7797 22.744 17.7804C23.0251 17.7812 23.3061 17.78 23.5872 17.7783C23.67 17.7789 23.7528 17.7795 23.838 17.7802C24.334 17.7745 24.6459 17.7307 25.0403 17.4263C25.4751 16.928 25.404 16.3452 25.4002 15.719C25.4006 15.6008 25.4012 15.4827 25.4019 15.3645C25.4033 15.0446 25.4028 14.7248 25.4018 14.4049C25.401 14.0696 25.4017 13.7343 25.4022 13.399C25.4028 12.836 25.402 12.273 25.4005 11.71C25.3988 11.0597 25.3993 10.4096 25.4011 9.75936C25.4025 9.20034 25.4027 8.64133 25.4019 8.08232C25.4014 7.74877 25.4013 7.41524 25.4024 7.0817C25.4033 6.76806 25.4027 6.45447 25.4008 6.14084C25.4004 6.02598 25.4005 5.91112 25.4012 5.79626C25.4073 4.71197 25.4073 4.71197 25.0403 4.25874C24.5587 3.87499 24.0927 3.90961 23.4918 3.92761C23.1878 3.93403 22.8838 3.94046 22.5707 3.94708C22.5707 3.07288 22.5707 2.19868 22.5707 1.29799C22.9913 1.29799 23.4119 1.29799 23.8453 1.29799C24.164 0.908421 24.164 0.908421 24.2038 0.674678C24.0912 0.013742 23.6733 -0.00517679 23.0902 0.00219021Z" fill="white"/>
<path d="M11.4971 7.06366C8.92875 6.91125 6.22584 8.0634 4.31319 9.69114C4.07321 9.90054 3.84162 10.1176 3.6102 10.3361C3.54325 10.3966 3.47629 10.4572 3.40731 10.5196C1.91768 11.9045 0.957477 13.6994 0.36382 15.605C0.347973 15.6552 0.332126 15.7054 0.315799 15.7571C0.0455364 16.6686 -0.00481442 17.589 0.000344609 18.5317C0.000516301 18.5883 0.00068842 18.6449 0.000865315 18.7032C0.00507558 19.5694 0.0448152 20.4019 0.264238 21.2441C0.278795 21.3032 0.293351 21.3623 0.308349 21.4233C0.699244 22.9732 1.3948 24.4373 2.41522 25.6852C2.47591 25.7616 2.5366 25.8381 2.59913 25.9168C3.40593 26.911 4.43118 27.9073 5.60185 28.4901C6.01638 28.4483 6.39934 28.2677 6.78439 28.1203C7.79025 27.7961 8.86271 27.8403 9.90785 27.8346C10.0761 27.8331 10.2443 27.8316 10.4125 27.83C10.8518 27.826 11.2912 27.8229 11.7306 27.82C12.1803 27.8169 12.63 27.8129 13.0797 27.809C13.9596 27.8015 14.8395 27.7949 15.7194 27.7889C15.6931 27.6089 15.6668 27.4289 15.6398 27.2435C15.7113 27.2434 15.7113 27.2434 15.7842 27.2434C16.9445 27.2422 18.1047 27.2389 19.265 27.2332C19.8261 27.2305 20.3872 27.2285 20.9483 27.2283C21.4896 27.228 22.031 27.2257 22.5723 27.2222C22.779 27.2212 22.9857 27.2208 23.1924 27.2212C23.4815 27.2216 23.7706 27.2196 24.0598 27.217C24.1455 27.2176 24.2313 27.2183 24.3196 27.219C24.8983 27.2103 24.8983 27.2103 25.213 26.9846C25.4069 26.7075 25.4191 26.5599 25.359 26.2306C25.1519 25.9718 25.0337 25.8546 24.6997 25.7925C24.6 25.7926 24.5003 25.7927 24.3976 25.7928C24.3139 25.7921 24.3139 25.7921 24.2286 25.7913C24.0421 25.7902 23.8557 25.7918 23.6692 25.7934C23.5353 25.7931 23.4014 25.7926 23.2675 25.792C22.9792 25.7911 22.691 25.7914 22.4027 25.7926C21.9458 25.7945 21.489 25.7936 21.0322 25.7923C20.2262 25.7904 19.4201 25.7908 18.6141 25.7918C17.4036 25.7932 16.1931 25.7929 14.9826 25.7902C14.5295 25.7893 14.0765 25.7897 13.6234 25.791C13.3399 25.7916 13.0563 25.7913 12.7728 25.7907C12.6425 25.7907 12.5122 25.791 12.382 25.7918C10.1896 25.8042 8.25607 25.1304 6.66707 23.6156C5.23865 22.1482 4.59317 20.2891 4.62345 18.2885C4.69809 16.3735 5.74108 14.6571 7.1127 13.3489C8.15112 12.427 9.45489 11.9046 10.822 11.6794C10.8869 11.6687 10.9517 11.658 11.0185 11.6469C11.0763 11.6381 11.1341 11.6294 11.1937 11.6203C11.3378 11.5827 11.3378 11.5827 11.4971 11.4269C11.4495 11.3645 11.4495 11.3645 11.401 11.3009C10.8535 10.5478 10.6269 9.7221 10.7403 8.80212C10.8495 8.22158 11.1297 7.73148 11.4175 7.21949C11.4437 7.16806 11.47 7.11664 11.4971 7.06366Z" fill="white"/>
<path d="M21.4277 28.9467C21.3715 28.9464 21.3153 28.9462 21.2573 28.946C21.0703 28.9453 20.8832 28.9452 20.6962 28.9451C20.5615 28.9447 20.4268 28.9443 20.292 28.9439C19.9269 28.9429 19.5618 28.9424 19.1967 28.942C18.9681 28.9418 18.7395 28.9415 18.5109 28.9411C17.7943 28.9401 17.0777 28.9393 16.3611 28.939C15.5365 28.9387 14.7119 28.9373 13.8873 28.935C13.2483 28.9333 12.6092 28.9326 11.9702 28.9325C11.5893 28.9324 11.2085 28.9319 10.8276 28.9305C10.4687 28.9292 10.1099 28.9291 9.75102 28.9297C9.62022 28.9298 9.48943 28.9295 9.35864 28.9287C8.30348 28.9228 7.23558 28.977 6.28894 29.4835C6.23585 29.5108 6.18276 29.5381 6.12806 29.5662C5.70373 29.7898 5.32244 30.0431 4.9645 30.3601C4.91099 30.4053 4.85749 30.4505 4.80237 30.497C4.09785 31.1316 3.63842 31.9606 3.37118 32.8533C3.34438 32.9379 3.34438 32.9379 3.31703 33.0241C3.17455 33.5423 3.1322 34.1152 3.21185 34.6454C3.36979 34.8403 3.4661 34.9436 3.71786 34.9961C3.78775 34.9961 3.85764 34.9962 3.92964 34.9962C4.01056 34.9971 4.09147 34.9979 4.17484 34.9987C4.26359 34.998 4.35233 34.9973 4.44377 34.9966C4.53816 34.9971 4.63255 34.9976 4.7298 34.9981C4.99191 34.9991 5.25393 34.9987 5.51603 34.9978C5.79864 34.9971 6.08125 34.9981 6.36386 34.999C6.91752 35.0004 7.47117 35.0001 8.02484 34.9992C8.47474 34.9985 8.92463 34.9984 9.37452 34.9987C9.4705 34.9988 9.4705 34.9988 9.56842 34.9989C9.69839 34.999 9.82837 34.9991 9.95834 34.9992C11.1777 35.0001 12.397 34.999 13.6163 34.9974C14.663 34.996 15.7097 34.9962 16.7564 34.9977C17.9713 34.9993 19.1862 35 20.4011 34.999C20.5306 34.9989 20.6601 34.9988 20.7896 34.9987C20.8533 34.9987 20.917 34.9986 20.9827 34.9986C21.4322 34.9983 21.8816 34.9988 22.3311 34.9995C22.8787 35.0004 23.4262 35.0001 23.9738 34.9985C24.2533 34.9977 24.5328 34.9973 24.8123 34.9984C25.115 34.9995 25.4177 34.9982 25.7204 34.9966C25.8091 34.9973 25.8979 34.998 25.9893 34.9987C26.0702 34.9979 26.1511 34.9971 26.2345 34.9962C26.3044 34.9962 26.3743 34.9961 26.4463 34.9961C26.6981 34.9436 26.7942 34.8402 26.9523 34.6454C27.1484 33.4973 26.7172 32.2477 26.076 31.295C25.8122 30.9562 25.5107 30.657 25.1996 30.3601C25.154 30.3139 25.1084 30.2677 25.0615 30.2201C24.1067 29.3248 22.715 28.9496 21.4277 28.9467Z" fill="white"/>
<path d="M22.5707 18.9067C20.8093 18.9067 19.0479 18.9067 17.2331 18.9067C17.2331 20.7766 17.2331 20.7766 17.5517 21.322C17.9983 21.6599 18.3758 21.6798 18.9285 21.6751C19.0447 21.6755 19.0447 21.6755 19.1632 21.676C19.3263 21.6762 19.4894 21.6756 19.6525 21.6743C19.9011 21.6726 20.1496 21.6743 20.3982 21.6763C20.5573 21.6761 20.7163 21.6757 20.8753 21.6751C20.986 21.676 20.986 21.676 21.0989 21.677C21.5766 21.6703 21.8731 21.6162 22.252 21.322C22.5707 20.6987 22.5707 20.6987 22.5707 18.9067Z" fill="white"/>
<path d="M58 33V35H26V33H58Z" fill="white"/>
<path d="M38 27.2222V23.8519L50.8306 5.25H38.5832V0.972221H56.9219V4.34259L44.1237 22.9444H57.3108V27.2222H38Z" fill="white"/>
<path d="M57.612 35L58 33C58 33 61.5 33 62 32.5C63 31 63.3145 27.287 63.3145 27.287L55.2791 7.77778H60.1392L65.6797 21.5509H65.8093L70.5074 7.77778H75.2703L66.5221 31.2083C66.0469 32.4614 65.4961 33.4012 64.8697 34.0278C64.2433 34.6759 63.2821 35 61.9861 35H57.612Z" fill="white"/>
<path d="M81.274 27.2222L73.7247 7.77778H78.5848L83.7365 21.7778H83.8661L88.953 7.77778H93.7159L86.1665 27.2222H81.274Z" fill="white"/>
<path d="M102.347 27.6111C100.532 27.6111 98.9121 27.2006 97.4865 26.3796C96.0608 25.537 94.9268 24.3596 94.0844 22.8472C93.2636 21.3349 92.8532 19.5525 92.8532 17.5C92.8532 15.4259 93.2636 13.6327 94.0844 12.1204C94.9268 10.608 96.0608 9.44136 97.4865 8.62037C98.9121 7.79938 100.532 7.38889 102.347 7.38889C104.204 7.38889 105.846 7.79938 107.271 8.62037C108.697 9.44136 109.809 10.608 110.609 12.1204C111.43 13.6327 111.84 15.4259 111.84 17.5C111.84 19.5525 111.43 21.3457 110.609 22.8796C109.788 24.392 108.665 25.5586 107.239 26.3796C105.813 27.2006 104.183 27.6111 102.347 27.6111ZM102.347 23.3981C103.794 23.3981 104.949 22.8688 105.813 21.8102C106.699 20.7299 107.142 19.2932 107.142 17.5C107.142 15.6852 106.699 14.2485 105.813 13.1898C104.949 12.1312 103.794 11.6019 102.347 11.6019C100.943 11.6019 99.7869 12.1312 98.8797 13.1898C97.9941 14.2485 97.5513 15.6852 97.5513 17.5C97.5513 19.2932 97.9941 20.7299 98.8797 21.8102C99.7869 22.8688 100.943 23.3981 102.347 23.3981Z" fill="white"/>
<path d="M114.065 27.2222V0H118.764V27.2222H114.065Z" fill="white"/>
<path d="M127.324 27.5787C125.358 27.5787 123.771 27.0278 122.561 25.9259C121.373 24.8241 120.779 23.3765 120.779 21.5833C120.779 19.7037 121.405 18.2454 122.658 17.2083C123.933 16.1713 125.715 15.6528 128.004 15.6528H132.994V14.8102C132.994 13.6867 132.67 12.8117 132.022 12.1852C131.396 11.5586 130.521 11.2454 129.397 11.2454C128.447 11.2454 127.659 11.4614 127.032 11.8935C126.406 12.3256 125.995 12.9522 125.801 13.7731H121.038C121.405 11.7423 122.323 10.1759 123.792 9.07407C125.261 7.95062 127.129 7.38889 129.397 7.38889C131.946 7.38889 133.923 8.04784 135.327 9.36574C136.752 10.6836 137.465 12.5417 137.465 14.9398V27.2222H133.091V24.3056H132.962C132.443 25.3426 131.687 26.1528 130.694 26.7361C129.722 27.2978 128.598 27.5787 127.324 27.5787ZM128.328 23.8519C129.214 23.8519 130.002 23.6574 130.694 23.2685C131.406 22.8796 131.968 22.3503 132.378 21.6806C132.789 20.9892 132.994 20.2114 132.994 19.3472V18.9259H128.231C127.259 18.9259 126.514 19.142 125.995 19.5741C125.477 20.0062 125.218 20.6003 125.218 21.3565C125.218 22.1343 125.499 22.75 126.06 23.2037C126.622 23.6358 127.378 23.8519 128.328 23.8519Z" fill="white"/>
<path d="M150.932 27.6111C148.275 27.6111 146.385 26.5093 145.262 24.3056H145.133V27.2222H140.564V0H145.262V10.5972H145.392C146.472 8.45833 148.319 7.38889 150.932 7.38889C152.552 7.38889 153.967 7.81018 155.177 8.65278C156.386 9.49537 157.326 10.6836 157.996 12.2176C158.665 13.7299 159 15.4907 159 17.5C159 19.4877 158.665 21.2485 157.996 22.7824C157.326 24.2948 156.386 25.483 155.177 26.3472C153.967 27.1898 152.552 27.6111 150.932 27.6111ZM149.636 23.4306C151.083 23.4306 152.217 22.9012 153.038 21.8426C153.881 20.7623 154.302 19.3148 154.302 17.5C154.302 15.6852 153.881 14.2485 153.038 13.1898C152.217 12.1096 151.083 11.5694 149.636 11.5694C148.275 11.5694 147.206 12.0123 146.429 12.8981C145.651 13.7839 145.262 14.9614 145.262 16.4306V18.5694C145.262 20.0386 145.651 21.216 146.429 22.1019C147.206 22.9877 148.275 23.4306 149.636 23.4306Z" fill="white"/>
</svg>
